<svg width="31" height="28" viewBox="0 0 31 28" fill="none" xmlns="http://www.w3.org/2000/svg">
<path d="M0 10.7161C0 4.79775 4.79775 0 10.7161 0H26.6962C28.9805 0 30.8322 1.85176 30.8322 4.13603V16.9201C30.8322 22.8385 26.0345 27.6362 20.1161 27.6362H4.13603C1.85176 27.6362 0 25.7844 0 23.5002V10.7161Z" fill="#FF7A51"/>
<path d="M14.8521 14.4761V18.1985H15.0401C15.6668 18.1985 16.1243 18.0857 16.4125 17.8601C16.7133 17.622 16.8637 17.2084 16.8637 16.6193C16.8637 16.0804 16.7196 15.6605 16.4313 15.3597C17.0079 15.2344 17.5343 15.0714 18.0105 14.8709C18.4868 14.6704 18.8879 14.4072 19.2137 14.0813C19.7401 14.3946 20.1161 14.7957 20.3418 15.2845C20.5674 15.7608 20.6802 16.3499 20.6802 17.0517C20.6802 18.2173 20.254 19.1135 19.4017 19.7401C18.5495 20.3668 17.2523 20.6802 15.5101 20.6802H11.1861V10.6597H14.8521V12.7089H15.0213C15.5853 12.7089 15.9927 12.6024 16.2433 12.3893C16.5065 12.1637 16.6381 11.7752 16.6381 11.2237C16.6381 10.6597 16.5065 10.2711 16.2433 10.0581C15.9927 9.83247 15.5853 9.71967 15.0213 9.71967H11.1861L10.1521 7.14405H15.7921C17.3087 7.14405 18.4116 7.45739 19.1009 8.08406C19.7903 8.71073 20.135 9.58807 20.135 10.7161C20.135 11.4305 19.972 12.0321 19.6461 12.5209C19.3328 12.9972 18.9129 13.3794 18.3865 13.6677C17.8601 13.956 17.2899 14.1628 16.6757 14.2881C16.0616 14.4134 15.4537 14.4761 14.8521 14.4761Z" fill="white"/>
</svg>
