<svg width="206" height="33" viewBox="0 0 206 33" fill="none" xmlns="http://www.w3.org/2000/svg">
<path d="M52.231 12.9711C53.5953 13.2904 54.7128 13.9726 55.5837 15.0176C56.4545 16.0335 56.8899 17.2672 56.8899 18.7186C56.8899 20.8666 56.2223 22.5502 54.887 23.7693C53.5517 24.9594 51.5634 25.5545 48.9219 25.5545H39.8654C39.5461 25.5545 39.3864 25.3948 39.3864 25.0755V1.86819C39.3864 1.51986 39.5461 1.3457 39.8654 1.3457H48.1817C50.678 1.3457 52.5938 1.89722 53.9291 3.00026C55.2934 4.10329 55.9755 5.64174 55.9755 7.6156C55.9755 9.15405 55.5837 10.3297 54.7999 11.1424C54.0162 11.9552 53.1599 12.5648 52.231 12.9711ZM39.3864 11.3166L48.5736 11.0989C49.7056 11.0989 50.5039 10.7941 50.9683 10.1845C51.4618 9.57494 51.7085 8.84926 51.7085 8.00747C51.7085 7.13665 51.4328 6.43999 50.8812 5.9175C50.3587 5.39501 49.517 5.13376 48.3559 5.13376H39.3864V11.3166ZM43.6534 21.81H48.4429C48.9945 21.81 49.575 21.7519 50.1846 21.6358C50.8232 21.4907 51.3602 21.1714 51.7956 20.6779C52.26 20.1844 52.4923 19.3862 52.4923 18.2831C52.4923 17.2962 52.173 16.4544 51.5344 15.7578C50.8957 15.0611 49.8798 14.7128 48.4865 14.7128H43.6534V21.81Z" fill="#1D1E23" fill-opacity="0.8"/>
<path d="M63.6966 18.8492C63.8417 20.0103 64.3497 20.8956 65.2205 21.5052C66.0913 22.1147 67.1944 22.4195 68.5296 22.4195C69.6327 22.4195 70.547 22.3034 71.2727 22.0712C71.9984 21.839 72.7241 21.5197 73.4498 21.1133C73.711 20.9391 73.9432 20.8521 74.1464 20.8521C74.4657 20.8521 74.6254 21.0553 74.6254 21.4616C74.6254 22.0712 74.3931 22.7243 73.9287 23.421C73.4933 24.1176 72.7966 24.7272 71.8387 25.2497C70.8808 25.7432 69.6036 25.9899 68.0071 25.9899C66.4397 25.9899 65.0028 25.6706 63.6966 25.032C62.4194 24.3644 61.4034 23.392 60.6487 22.1147C59.894 20.8085 59.5166 19.212 59.5166 17.3252C59.5166 15.6707 59.8359 14.2048 60.4745 12.9276C61.1422 11.6504 62.071 10.649 63.2612 9.92327C64.4803 9.19759 65.9026 8.83475 67.5282 8.83475C69.2698 8.83475 70.6776 9.19759 71.7517 9.92327C72.8547 10.6199 73.6529 11.5343 74.1464 12.6664C74.6689 13.7984 74.9301 15.0031 74.9301 16.2803C74.9301 16.7157 74.9156 17.1075 74.8866 17.4559C74.8866 17.7752 74.8721 18.0509 74.8431 18.2831C74.814 18.6605 74.5673 18.8492 74.1029 18.8492H63.6966ZM63.6966 15.8448H70.7502C70.8083 15.3514 70.7502 14.8434 70.576 14.3209C70.4309 13.7694 70.1116 13.305 69.6181 12.9276C69.1247 12.5502 68.428 12.3616 67.5282 12.3616C66.4251 12.3616 65.5398 12.6809 64.8722 13.3195C64.2336 13.929 63.8417 14.7708 63.6966 15.8448Z" fill="#1D1E23" fill-opacity="0.8"/>
<path d="M82.2001 11.3166C82.7517 10.5619 83.4483 9.96681 84.2901 9.5314C85.1609 9.09599 86.1043 8.87829 87.1203 8.87829C89.1812 8.87829 90.7922 9.48786 91.9533 10.707C93.1434 11.9262 93.7385 13.7404 93.7385 16.1496V25.0755C93.7385 25.3948 93.5788 25.5545 93.2595 25.5545H90.0375C89.7182 25.5545 89.5586 25.3948 89.5586 25.0755V16.6721C89.5586 15.2498 89.2247 14.2338 88.5571 13.6243C87.8895 13.0147 87.0477 12.7099 86.0317 12.7099C85.0158 12.7099 84.174 13.0292 83.5064 13.6678C82.8387 14.2774 82.5049 15.3078 82.5049 16.7592V25.0755C82.5049 25.3948 82.3308 25.5545 81.9824 25.5545H78.8039C78.4846 25.5545 78.325 25.3948 78.325 25.0755V9.70557C78.325 9.35724 78.4846 9.18307 78.8039 9.18307H79.0216C79.8634 9.18307 80.5601 9.37175 81.1116 9.74911C81.6631 10.0974 82.026 10.6199 82.2001 11.3166Z" fill="#1D1E23" fill-opacity="0.8"/>
<path d="M101.285 18.8492C101.43 20.0103 101.938 20.8956 102.809 21.5052C103.679 22.1147 104.782 22.4195 106.118 22.4195C107.221 22.4195 108.135 22.3034 108.861 22.0712C109.587 21.839 110.312 21.5197 111.038 21.1133C111.299 20.9391 111.531 20.8521 111.735 20.8521C112.054 20.8521 112.213 21.0553 112.213 21.4616C112.213 22.0712 111.981 22.7243 111.517 23.421C111.081 24.1176 110.385 24.7272 109.427 25.2497C108.469 25.7432 107.192 25.9899 105.595 25.9899C104.028 25.9899 102.591 25.6706 101.285 25.032C100.007 24.3644 98.9915 23.392 98.2368 22.1147C97.4821 20.8085 97.1048 19.212 97.1048 17.3252C97.1048 15.6707 97.4241 14.2048 98.0627 12.9276C98.7303 11.6504 99.6592 10.649 100.849 9.92327C102.068 9.19759 103.491 8.83475 105.116 8.83475C106.858 8.83475 108.266 9.19759 109.34 9.92327C110.443 10.6199 111.241 11.5343 111.735 12.6664C112.257 13.7984 112.518 15.0031 112.518 16.2803C112.518 16.7157 112.504 17.1075 112.475 17.4559C112.475 17.7752 112.46 18.0509 112.431 18.2831C112.402 18.6605 112.155 18.8492 111.691 18.8492H101.285ZM101.285 15.8448H108.338C108.396 15.3514 108.338 14.8434 108.164 14.3209C108.019 13.7694 107.7 13.305 107.206 12.9276C106.713 12.5502 106.016 12.3616 105.116 12.3616C104.013 12.3616 103.128 12.6809 102.46 13.3195C101.822 13.929 101.43 14.7708 101.285 15.8448Z" fill="#1D1E23" fill-opacity="0.8"/>
<path d="M117.306 12.9276H114.825C114.534 12.9276 114.389 12.7679 114.389 12.4486V9.70557C114.389 9.35724 114.534 9.18307 114.825 9.18307H117.306V7.09311C117.306 5.03217 117.756 3.52275 118.656 2.56485C119.556 1.60694 120.717 1.12799 122.139 1.12799C123.155 1.12799 123.983 1.33118 124.621 1.73756C125.26 2.11492 125.724 2.59387 126.015 3.17442C126.334 3.72594 126.494 4.27746 126.494 4.82898C126.494 5.32244 126.348 5.56917 126.058 5.56917C125.884 5.56917 125.739 5.54015 125.623 5.48209C125.245 5.24987 124.883 5.06119 124.534 4.91606C124.186 4.77092 123.809 4.69835 123.402 4.69835C122.735 4.69835 122.241 4.90154 121.922 5.30793C121.602 5.71431 121.443 6.39645 121.443 7.35435V9.18307H125.449C125.797 9.18307 125.971 9.35724 125.971 9.70557V12.4486C125.971 12.7679 125.797 12.9276 125.449 12.9276H121.443V25.0755C121.443 25.3948 121.283 25.5545 120.964 25.5545H117.785C117.466 25.5545 117.306 25.3948 117.306 25.0755V12.9276ZM128.975 4.91606C128.975 4.2194 129.193 3.65337 129.629 3.21796C130.093 2.75352 130.659 2.5213 131.327 2.5213C131.994 2.5213 132.546 2.75352 132.981 3.21796C133.446 3.65337 133.678 4.2194 133.678 4.91606C133.678 5.58369 133.446 6.14972 132.981 6.61416C132.546 7.07859 131.994 7.31081 131.327 7.31081C130.659 7.31081 130.093 7.07859 129.629 6.61416C129.193 6.14972 128.975 5.58369 128.975 4.91606ZM129.716 25.5545C129.425 25.5545 129.28 25.3948 129.28 25.0755V9.70557C129.28 9.35724 129.425 9.18307 129.716 9.18307H129.933C131.036 9.18307 131.893 9.47335 132.502 10.0539C133.112 10.6344 133.417 11.5778 133.417 12.8841V25.0755C133.417 25.3948 133.257 25.5545 132.938 25.5545H129.716Z" fill="#1D1E23" fill-opacity="0.8"/>
<path d="M139.429 12.9711H136.556C136.236 12.9711 136.077 12.797 136.077 12.4486V9.70557C136.077 9.35724 136.236 9.18307 136.556 9.18307H139.429V3.91462C139.429 3.59531 139.574 3.43566 139.865 3.43566H140.082C141.214 3.43566 142.071 3.72594 142.651 4.30648C143.261 4.88703 143.566 5.81591 143.566 7.09311V9.18307H147.093C147.354 9.18307 147.484 9.35724 147.484 9.70557V12.4486C147.484 12.797 147.354 12.9711 147.093 12.9711H143.566V25.0755C143.566 25.3948 143.421 25.5545 143.13 25.5545H139.865C139.574 25.5545 139.429 25.3948 139.429 25.0755V12.9711Z" fill="#1D1E23" fill-opacity="0.8"/>
<path d="M150.091 4.91606C150.091 4.2194 150.309 3.65337 150.745 3.21796C151.209 2.75352 151.775 2.5213 152.443 2.5213C153.11 2.5213 153.662 2.75352 154.097 3.21796C154.562 3.65337 154.794 4.2194 154.794 4.91606C154.794 5.58369 154.562 6.14972 154.097 6.61416C153.662 7.07859 153.11 7.31081 152.443 7.31081C151.775 7.31081 151.209 7.07859 150.745 6.61416C150.309 6.14972 150.091 5.58369 150.091 4.91606ZM150.832 25.5545C150.541 25.5545 150.396 25.3948 150.396 25.0755V9.70557C150.396 9.35724 150.541 9.18307 150.832 9.18307H151.049C152.152 9.18307 153.009 9.47335 153.618 10.0539C154.228 10.6344 154.533 11.5778 154.533 12.8841V25.0755C154.533 25.3948 154.373 25.5545 154.054 25.5545H150.832Z" fill="#1D1E23" fill-opacity="0.8"/>
<path d="M170.663 23.5081C170.082 24.2918 169.342 24.9014 168.442 25.3368C167.542 25.7432 166.584 25.9464 165.568 25.9464C163.943 25.9464 162.564 25.5545 161.432 24.7708C160.329 23.987 159.487 22.942 158.906 21.6358C158.355 20.3296 158.079 18.8927 158.079 17.3252C158.079 15.6997 158.384 14.2483 158.994 12.9711C159.603 11.6649 160.474 10.6344 161.606 9.87973C162.767 9.12502 164.117 8.74767 165.655 8.74767C166.932 8.74767 168.006 8.97988 168.877 9.44432C169.777 9.90876 170.488 10.4603 171.011 11.0989C171.243 10.4312 171.62 9.9523 172.143 9.66203C172.694 9.34273 173.348 9.18307 174.102 9.18307H174.32C174.639 9.18307 174.799 9.35724 174.799 9.70557V25.0755C174.799 25.3948 174.639 25.5545 174.32 25.5545H171.098C170.808 25.5545 170.663 25.3948 170.663 25.0755V23.5081ZM166.483 22.0277C167.034 22.0277 167.629 21.9116 168.268 21.6793C168.935 21.4181 169.501 20.9537 169.966 20.286C170.43 19.6184 170.663 18.6315 170.663 17.3252C170.663 16.019 170.43 15.0466 169.966 14.408C169.501 13.7404 168.95 13.305 168.311 13.1018C167.673 12.8695 167.078 12.7534 166.526 12.7534C165.946 12.7534 165.321 12.8841 164.654 13.1453C164.015 13.4066 163.464 13.871 162.999 14.5386C162.564 15.2062 162.346 16.1351 162.346 17.3252C162.346 18.5734 162.578 19.5458 163.043 20.2425C163.536 20.9101 164.102 21.3746 164.741 21.6358C165.38 21.897 165.96 22.0277 166.483 22.0277Z" fill="#1D1E23" fill-opacity="0.8"/>
<path d="M182.806 11.5778C183.299 10.649 183.894 10.0249 184.591 9.70557C185.288 9.35724 186.231 9.18307 187.421 9.18307H187.9C188.19 9.18307 188.335 9.35724 188.335 9.70557V12.6664C188.335 13.0147 188.19 13.1888 187.9 13.1888H186.768C185.171 13.1888 184.126 13.5952 183.633 14.408C183.169 15.1917 182.936 16.3528 182.936 17.8913V25.0755C182.936 25.3948 182.791 25.5545 182.501 25.5545H179.235C178.974 25.5545 178.843 25.3948 178.843 25.0755V9.70557C178.843 9.35724 178.974 9.18307 179.235 9.18307H179.453C181.34 9.18307 182.457 9.98133 182.806 11.5778Z" fill="#1D1E23" fill-opacity="0.8"/>
<path d="M195.697 25.9464L189.862 9.70557C189.833 9.58946 189.833 9.47335 189.862 9.35724C189.92 9.24113 190.007 9.18307 190.123 9.18307H191.038C192.228 9.18307 193.099 9.42981 193.65 9.92327C194.231 10.4167 194.768 11.3456 195.261 12.7099L197.961 20.8085L201.618 9.74911C201.792 9.37175 202.024 9.18307 202.315 9.18307H205.537C205.682 9.18307 205.769 9.24113 205.798 9.35724C205.827 9.47335 205.827 9.58946 205.798 9.70557L200.138 25.598C199.644 27.0204 199.107 28.2831 198.527 29.3861C197.975 30.5182 197.293 31.4035 196.48 32.0421C195.667 32.6807 194.637 33 193.389 33C192.46 33 191.676 32.7968 191.038 32.3904C190.399 32.0131 189.92 31.5196 189.601 30.91C189.281 30.3005 189.122 29.7054 189.122 29.1248C189.122 28.9217 189.165 28.733 189.252 28.5588C189.34 28.3847 189.47 28.2976 189.644 28.2976C189.702 28.2976 189.76 28.3121 189.818 28.3411C189.906 28.3992 189.978 28.4572 190.036 28.5153C190.82 29.0958 191.604 29.3861 192.387 29.3861C193.2 29.3861 193.839 29.1248 194.303 28.6024C194.768 28.1089 195.232 27.2236 195.697 25.9464Z" fill="#1D1E23" fill-opacity="0.8"/>
<path d="M0 10.7161C0 4.79775 4.79775 0 10.7161 0H26.6962C28.9805 0 30.8322 1.85176 30.8322 4.13603V16.9201C30.8322 22.8385 26.0345 27.6362 20.1161 27.6362H4.13603C1.85176 27.6362 0 25.7844 0 23.5002V10.7161Z" fill="#FF7A51"/>
<path d="M14.8521 14.4761V18.1985H15.0401C15.6668 18.1985 16.1243 18.0857 16.4125 17.8601C16.7133 17.622 16.8637 17.2084 16.8637 16.6193C16.8637 16.0804 16.7196 15.6605 16.4313 15.3597C17.0079 15.2344 17.5343 15.0714 18.0105 14.8709C18.4868 14.6704 18.8879 14.4072 19.2137 14.0813C19.7401 14.3946 20.1161 14.7957 20.3418 15.2845C20.5674 15.7608 20.6802 16.3499 20.6802 17.0517C20.6802 18.2173 20.254 19.1135 19.4017 19.7401C18.5495 20.3668 17.2523 20.6802 15.5101 20.6802H11.1861V10.6597H14.8521V12.7089H15.0213C15.5853 12.7089 15.9927 12.6024 16.2433 12.3893C16.5065 12.1637 16.6381 11.7752 16.6381 11.2237C16.6381 10.6597 16.5065 10.2711 16.2433 10.0581C15.9927 9.83247 15.5853 9.71967 15.0213 9.71967H11.1861L10.1521 7.14405H15.7921C17.3087 7.14405 18.4116 7.45739 19.1009 8.08406C19.7903 8.71073 20.135 9.58807 20.135 10.7161C20.135 11.4305 19.972 12.0321 19.6461 12.5209C19.3328 12.9972 18.9129 13.3794 18.3865 13.6677C17.8601 13.956 17.2899 14.1628 16.6757 14.2881C16.0616 14.4134 15.4537 14.4761 14.8521 14.4761Z" fill="white"/>
</svg>
